<svg xmlns="http://www.w3.org/2000/svg" xmlns:xlink="http://www.w3.org/1999/xlink" width="510" zoomAndPan="magnify" viewBox="0 0 382.5 89.999999" height="120" preserveAspectRatio="xMidYMid meet" version="1.0"><defs><g/><clipPath id="594c31824d"><rect x="0" width="118" y="0" height="31"/></clipPath><clipPath id="78387136f9"><path d="M 0.046875 3 L 8 3 L 8 10 L 0.046875 10 Z M 0.046875 3 " clip-rule="nonzero"/></clipPath><clipPath id="f7ccc7a070"><rect x="0" width="79" y="0" height="13"/></clipPath></defs><path fill="#2e5ca0" d="M 114.910156 4.625 C 113.722656 5.8125 113.730469 7.484375 114.929688 8.59375 C 115.757812 9.363281 115.835938 9.695312 115.835938 12.476562 L 115.835938 15.519531 L 122.71875 22.398438 L 129.605469 29.277344 L 129.605469 34.492188 C 129.605469 39.144531 129.6875 39.839844 130.359375 40.929688 C 130.773438 41.601562 131.183594 42.148438 131.265625 42.148438 C 131.351562 42.148438 131.417969 39.101562 131.417969 35.375 L 131.417969 28.601562 L 117.644531 14.765625 L 117.644531 12.097656 C 117.644531 9.722656 117.746094 9.34375 118.550781 8.59375 C 120.308594 6.96875 119.101562 3.734375 116.742188 3.734375 C 116.222656 3.734375 115.402344 4.132812 114.910156 4.625 M 146.679688 4.367188 C 146.261719 4.71875 145.820312 5.507812 145.699219 6.128906 C 145.523438 7.042969 145.691406 7.492188 146.605469 8.53125 C 147.617188 9.683594 147.726562 10.042969 147.726562 12.199219 L 147.726562 14.59375 L 140.839844 21.4375 L 133.953125 28.277344 L 133.953125 42.316406 L 134.859375 40.984375 C 135.726562 39.710938 135.765625 39.410156 135.765625 34.277344 L 135.765625 28.898438 L 142.472656 22.226562 L 149.175781 15.554688 L 149.175781 12.679688 C 149.175781 10.007812 149.25 9.722656 150.261719 8.570312 C 151.582031 7.066406 151.644531 5.808594 150.460938 4.625 C 149.402344 3.566406 147.777344 3.457031 146.679688 4.367188 M 115.621094 5.683594 C 115.1875 6.8125 115.625 7.539062 116.746094 7.539062 C 117.707031 7.539062 117.828125 7.417969 117.828125 6.453125 C 117.828125 5.535156 117.671875 5.347656 116.828125 5.25 C 116.191406 5.175781 115.753906 5.332031 115.621094 5.683594 M 147.363281 5.910156 C 147.050781 6.492188 147.058594 6.808594 147.382812 7.199219 C 148.347656 8.359375 150.449219 7.226562 149.660156 5.96875 C 149.082031 5.046875 147.84375 5.015625 147.363281 5.910156 M 105.6875 17.707031 L 105.6875 21.167969 L 107.769531 22.082031 C 115.308594 25.378906 119.582031 28.128906 124.089844 32.585938 C 127.796875 36.246094 127.890625 36.128906 125.386719 30.972656 C 122.691406 25.421875 117.953125 20.945312 109.992188 16.425781 C 107.878906 15.226562 106.042969 14.242188 105.917969 14.242188 C 105.789062 14.242188 105.6875 15.800781 105.6875 17.707031 M 155.558594 16.105469 C 147.03125 20.917969 141.667969 26.175781 138.839844 32.503906 C 137.179688 36.21875 137.332031 36.324219 140.15625 33.414062 C 144.023438 29.433594 148.128906 26.570312 154.261719 23.578125 L 159.65625 20.949219 L 159.671875 17.597656 C 159.683594 15.136719 159.566406 14.25 159.234375 14.265625 C 158.984375 14.277344 157.332031 15.105469 155.558594 16.105469 M 98.441406 41.113281 C 98.441406 52.175781 98.585938 60.246094 98.796875 61.007812 C 99.316406 62.863281 101.0625 65.457031 102.574219 66.609375 C 103.292969 67.160156 106.253906 68.554688 109.144531 69.710938 C 112.039062 70.867188 115.339844 72.332031 116.480469 72.96875 C 120.945312 75.46875 125.027344 79.003906 128.503906 83.375 C 129.175781 84.21875 129.820312 84.914062 129.9375 84.914062 C 130.054688 84.914062 130.105469 80.195312 130.046875 74.425781 L 129.945312 63.933594 L 125.957031 60.160156 L 121.964844 56.386719 L 122.175781 49.738281 L 127.414062 54.597656 L 132.65625 59.460938 L 137.308594 55.066406 C 139.871094 52.652344 142.199219 50.542969 142.488281 50.378906 C 142.914062 50.144531 143.015625 50.390625 143.019531 51.644531 C 143.019531 52.5 143.128906 53.839844 143.257812 54.617188 L 143.488281 56.03125 L 139.257812 60.066406 L 135.023438 64.101562 L 135.070312 74.769531 L 135.117188 85.441406 L 136.246094 84 C 138.554688 81.050781 143.269531 76.46875 145.550781 74.960938 C 148.539062 72.984375 151.703125 71.398438 155.863281 69.789062 C 161.414062 67.648438 163.023438 66.652344 164.824219 64.257812 C 166.859375 61.546875 166.933594 60.722656 166.933594 40.816406 C 166.933594 30.785156 166.796875 22.578125 166.628906 22.578125 C 165.449219 22.578125 155.523438 26.742188 151.351562 28.988281 C 144.460938 32.695312 139.636719 36.9375 137.269531 41.375 C 135.875 43.996094 134.679688 48.453125 134.679688 51.039062 C 134.679688 52.398438 134.46875 53.191406 133.929688 53.878906 C 132.984375 55.078125 132.613281 55.074219 131.347656 53.859375 C 130.421875 52.972656 130.332031 52.65625 130.324219 50.328125 C 130.320312 47.101562 128.902344 42.84375 126.820312 39.789062 C 125.167969 37.363281 121.59375 33.820312 119.046875 32.082031 C 115.367188 29.574219 102.785156 23.582031 99.433594 22.75 L 98.4375 22.5 Z M 98.441406 41.113281 " fill-opacity="1" fill-rule="evenodd"/><g transform="matrix(1, 0, 0, 1, 184, 28)"><g clip-path="url(#594c31824d)"><g fill="#2e5ca0" fill-opacity="1"><g transform="translate(1.028134, 22.264396)"><g><path d="M 8.5625 0 L 8.5625 -7.125 L 0.0625 -20.203125 L 5.703125 -20.203125 L 11.203125 -11.203125 L 11.234375 -11.203125 L 16.515625 -20.203125 L 22.21875 -20.203125 L 13.84375 -7.125 L 13.84375 0 Z M 8.5625 0 "/></g></g></g><g fill="#2e5ca0" fill-opacity="1"><g transform="translate(22.640485, 22.264396)"><g><path d="M 13.734375 0.703125 C 11.179688 0.703125 8.941406 0.253906 7.015625 -0.640625 C 5.097656 -1.535156 3.601562 -2.796875 2.53125 -4.421875 C 1.46875 -6.046875 0.9375 -7.9375 0.9375 -10.09375 C 0.9375 -12.269531 1.46875 -14.164062 2.53125 -15.78125 C 3.601562 -17.40625 5.097656 -18.664062 7.015625 -19.5625 C 8.941406 -20.457031 11.179688 -20.90625 13.734375 -20.90625 C 16.304688 -20.90625 18.554688 -20.457031 20.484375 -19.5625 C 22.410156 -18.664062 23.910156 -17.40625 24.984375 -15.78125 C 26.054688 -14.164062 26.59375 -12.269531 26.59375 -10.09375 C 26.59375 -7.9375 26.054688 -6.046875 24.984375 -4.421875 C 23.910156 -2.796875 22.410156 -1.535156 20.484375 -0.640625 C 18.554688 0.253906 16.304688 0.703125 13.734375 0.703125 Z M 13.734375 -3.4375 C 15.242188 -3.4375 16.566406 -3.710938 17.703125 -4.265625 C 18.835938 -4.828125 19.71875 -5.609375 20.34375 -6.609375 C 20.96875 -7.609375 21.28125 -8.769531 21.28125 -10.09375 C 21.28125 -11.4375 20.96875 -12.601562 20.34375 -13.59375 C 19.71875 -14.59375 18.835938 -15.367188 17.703125 -15.921875 C 16.566406 -16.484375 15.242188 -16.765625 13.734375 -16.765625 C 12.234375 -16.765625 10.914062 -16.484375 9.78125 -15.921875 C 8.65625 -15.367188 7.78125 -14.59375 7.15625 -13.59375 C 6.53125 -12.601562 6.21875 -11.4375 6.21875 -10.09375 C 6.21875 -8.769531 6.53125 -7.609375 7.15625 -6.609375 C 7.78125 -5.609375 8.65625 -4.828125 9.78125 -4.265625 C 10.914062 -3.710938 12.234375 -3.4375 13.734375 -3.4375 Z M 13.734375 -3.4375 "/></g></g></g><g fill="#2e5ca0" fill-opacity="1"><g transform="translate(50.407687, 22.264396)"><g><path d="M 7.578125 0 L 7.578125 -16.0625 L 0.3125 -16.0625 L 0.3125 -20.203125 L 20.125 -20.203125 L 20.125 -16.0625 L 12.859375 -16.0625 L 12.859375 0 Z M 7.578125 0 "/></g></g></g><g fill="#2e5ca0" fill-opacity="1"><g transform="translate(72.616089, 22.264396)"><g><path d="M 7.578125 0 L 7.578125 -16.0625 L 0.3125 -16.0625 L 0.3125 -20.203125 L 20.125 -20.203125 L 20.125 -16.0625 L 12.859375 -16.0625 L 12.859375 0 Z M 7.578125 0 "/></g></g></g><g fill="#2e5ca0" fill-opacity="1"><g transform="translate(91.533853, 22.264396)"><g><path d="M 0.109375 0 L 8.90625 -20.203125 L 15.203125 -20.203125 L 23.890625 0 L 18.390625 0 L 16.765625 -3.96875 L 7.203125 -3.96875 L 5.59375 0 Z M 8.28125 -7.40625 L 15.6875 -7.40625 L 12.0625 -16.421875 L 12 -16.421875 Z M 8.28125 -7.40625 "/></g></g></g></g></g><g transform="matrix(1, 0, 0, 1, 208, 57)"><g clip-path="url(#f7ccc7a070)"><g clip-path="url(#78387136f9)"><g fill="#9b9b9b" fill-opacity="1"><g transform="translate(0.154119, 9.828187)"><g><path d="M 5.34375 -1.8125 L 1.578125 -1.8125 L 0.765625 0 L 0.015625 0 L 3.109375 -6.765625 L 3.828125 -6.765625 L 6.921875 0 L 6.15625 0 Z M 5.09375 -2.390625 L 3.46875 -6.03125 L 1.84375 -2.390625 Z M 5.09375 -2.390625 "/></g></g></g></g><g fill="#9b9b9b" fill-opacity="1"><g transform="translate(10.863424, 9.828187)"><g><path d="M 4.046875 0.0625 C 3.367188 0.0625 2.757812 -0.0820312 2.21875 -0.375 C 1.6875 -0.675781 1.265625 -1.085938 0.953125 -1.609375 C 0.648438 -2.140625 0.5 -2.734375 0.5 -3.390625 C 0.5 -4.035156 0.648438 -4.617188 0.953125 -5.140625 C 1.265625 -5.671875 1.691406 -6.082031 2.234375 -6.375 C 2.773438 -6.675781 3.378906 -6.828125 4.046875 -6.828125 C 4.554688 -6.828125 5.019531 -6.742188 5.4375 -6.578125 C 5.863281 -6.410156 6.226562 -6.164062 6.53125 -5.84375 L 6.078125 -5.390625 C 5.546875 -5.921875 4.878906 -6.1875 4.078125 -6.1875 C 3.535156 -6.1875 3.046875 -6.0625 2.609375 -5.8125 C 2.171875 -5.570312 1.828125 -5.238281 1.578125 -4.8125 C 1.328125 -4.382812 1.203125 -3.910156 1.203125 -3.390625 C 1.203125 -2.859375 1.328125 -2.378906 1.578125 -1.953125 C 1.828125 -1.523438 2.171875 -1.1875 2.609375 -0.9375 C 3.046875 -0.695312 3.535156 -0.578125 4.078125 -0.578125 C 4.890625 -0.578125 5.554688 -0.847656 6.078125 -1.390625 L 6.53125 -0.9375 C 6.226562 -0.613281 5.863281 -0.363281 5.4375 -0.1875 C 5.007812 -0.0195312 4.546875 0.0625 4.046875 0.0625 Z M 4.046875 0.0625 "/></g></g></g><g fill="#9b9b9b" fill-opacity="1"><g transform="translate(21.514679, 9.828187)"><g><path d="M 5.34375 -1.8125 L 1.578125 -1.8125 L 0.765625 0 L 0.015625 0 L 3.109375 -6.765625 L 3.828125 -6.765625 L 6.921875 0 L 6.15625 0 Z M 5.09375 -2.390625 L 3.46875 -6.03125 L 1.84375 -2.390625 Z M 5.09375 -2.390625 "/></g></g></g><g fill="#9b9b9b" fill-opacity="1"><g transform="translate(32.320727, 9.828187)"><g><path d="M 1.109375 -6.765625 L 3.859375 -6.765625 C 4.578125 -6.765625 5.207031 -6.617188 5.75 -6.328125 C 6.300781 -6.046875 6.726562 -5.648438 7.03125 -5.140625 C 7.332031 -4.628906 7.484375 -4.046875 7.484375 -3.390625 C 7.484375 -2.734375 7.332031 -2.144531 7.03125 -1.625 C 6.726562 -1.113281 6.300781 -0.710938 5.75 -0.421875 C 5.207031 -0.140625 4.578125 0 3.859375 0 L 1.109375 0 Z M 3.828125 -0.625 C 4.410156 -0.625 4.925781 -0.738281 5.375 -0.96875 C 5.820312 -1.207031 6.164062 -1.535156 6.40625 -1.953125 C 6.65625 -2.367188 6.78125 -2.847656 6.78125 -3.390625 C 6.78125 -3.929688 6.65625 -4.40625 6.40625 -4.8125 C 6.164062 -5.226562 5.820312 -5.554688 5.375 -5.796875 C 4.925781 -6.035156 4.410156 -6.15625 3.828125 -6.15625 L 1.8125 -6.15625 L 1.8125 -0.625 Z M 3.828125 -0.625 "/></g></g></g><g fill="#9b9b9b" fill-opacity="1"><g transform="translate(44.181167, 9.828187)"><g><path d="M 5.890625 -0.625 L 5.890625 0 L 1.109375 0 L 1.109375 -6.765625 L 5.75 -6.765625 L 5.75 -6.15625 L 1.8125 -6.15625 L 1.8125 -3.75 L 5.3125 -3.75 L 5.3125 -3.140625 L 1.8125 -3.140625 L 1.8125 -0.625 Z M 5.890625 -0.625 "/></g></g></g><g fill="#9b9b9b" fill-opacity="1"><g transform="translate(54.522893, 9.828187)"><g><path d="M 8.140625 -6.765625 L 8.140625 0 L 7.453125 0 L 7.453125 -5.421875 L 4.78125 -0.859375 L 4.453125 -0.859375 L 1.796875 -5.390625 L 1.796875 0 L 1.109375 0 L 1.109375 -6.765625 L 1.6875 -6.765625 L 4.640625 -1.75 L 7.546875 -6.765625 Z M 8.140625 -6.765625 "/></g></g></g><g fill="#9b9b9b" fill-opacity="1"><g transform="translate(67.631196, 9.828187)"><g><path d="M 3.421875 -2.34375 L 3.421875 0 L 2.71875 0 L 2.71875 -2.34375 L 0.015625 -6.765625 L 0.78125 -6.765625 L 3.09375 -2.96875 L 5.421875 -6.765625 L 6.125 -6.765625 Z M 3.421875 -2.34375 "/></g></g></g></g></g><path stroke-linecap="butt" transform="matrix(0.749019, -0.00183713, 0.00183713, 0.749019, 198.740206, 55.794272)" fill="none" stroke-linejoin="miter" d="M 0.0014215 0.498918 L 123.43898 0.499196 " stroke="#000000" stroke-width="1" stroke-opacity="1" stroke-miterlimit="4"/></svg>